<svg width="639" height="161" viewBox="0 0 639 161" fill="none" xmlns="http://www.w3.org/2000/svg">
<g opacity="0.1">
<path d="M167.527 22.5471C170.192 22.5471 172.414 22.5471 175.079 22.2163C178.189 21.8855 181.299 21.2239 184.409 21.2239C187.519 21.2239 190.629 20.2315 193.739 19.5699C200.847 17.9158 207.955 16.2618 215.064 14.6077C219.062 13.6153 223.505 12.9537 227.503 13.2845C232.834 13.6153 238.165 12.9537 243.052 11.9613C245.274 11.6305 247.939 10.9689 250.161 10.6381C255.048 9.97644 259.046 8.98401 262.156 6.33755C262.6 6.00674 263.489 6.00674 263.933 5.67594C264.822 5.34513 266.599 5.67594 267.487 6.66836C268.82 8.98401 269.264 8.98401 271.041 8.65321C273.263 7.99159 275.04 7.66078 276.817 6.99917C278.594 6.33755 280.815 6.99917 282.592 5.67594C280.815 4.0219 277.705 6.00674 275.928 4.0219C283.925 3.36028 291.478 1.37544 300.807 2.69867C299.474 3.02948 298.586 3.36028 297.697 3.36028C296.809 3.36028 295.476 3.36028 295.476 4.35271C295.92 4.35271 295.92 4.68351 296.365 4.68351C307.471 4.35271 318.134 4.35271 329.24 2.69867C331.906 2.36786 335.016 2.36786 337.681 2.03705C353.675 1.04463 370.557 0.0522091 386.995 0.0522098C393.215 0.0522101 398.99 0.0522103 405.21 0.0522106C417.65 -0.278597 430.089 1.04463 442.529 1.70625C448.748 2.03706 454.968 3.02948 461.188 4.02191C462.076 4.02191 462.965 4.68352 463.854 5.01433C454.08 5.34514 444.75 5.34514 435.42 4.35271C433.643 4.0219 431.866 4.0219 430.089 4.35271C422.537 5.34513 414.54 4.68352 406.987 5.01433C398.102 5.34513 389.217 4.35271 380.331 5.01432C371.89 5.67594 363.449 5.34513 355.008 5.34513C352.787 5.34513 350.565 5.34513 348.788 5.67594C340.791 6.66836 332.35 6.66836 324.353 6.99917C318.578 6.99917 313.247 7.66078 307.471 7.99159C296.809 8.98401 286.591 10.3072 275.928 11.2997C270.153 11.9613 263.933 12.6229 258.158 13.2845C257.269 13.2845 256.38 13.9461 255.492 14.2769C250.161 14.2769 244.829 14.6077 239.498 15.6002C237.277 15.931 234.611 15.931 231.946 16.2618C230.169 16.5926 228.392 16.5926 226.614 16.9234C224.393 17.2542 224.393 17.9158 226.614 19.5699C226.614 19.9007 227.059 19.9007 227.059 20.2315C227.059 20.5623 226.614 20.8931 226.614 20.8931C225.726 20.8931 224.393 21.2239 223.505 20.8931C221.728 20.5623 219.95 20.8931 218.173 21.5547C214.619 22.8779 211.509 25.1936 206.622 24.8628C203.068 24.532 199.07 26.5168 195.071 26.186C192.406 25.8552 191.517 27.5092 189.74 28.5017C188.852 28.8325 187.519 29.4941 186.63 28.8325C184.409 27.1784 182.188 27.5092 179.522 28.1709C175.079 29.4941 170.192 30.8173 164.861 30.1557C162.196 29.8249 159.974 30.4865 157.753 31.4789C155.087 32.4714 152.422 33.133 149.756 33.4638C146.202 34.1254 142.204 34.787 139.094 36.7719C137.761 37.7643 135.095 38.0951 133.318 38.4259C123.1 39.4183 113.326 42.7264 103.997 45.3729C93.7784 48.3501 84.0045 51.989 74.2306 55.9587C63.1239 60.2592 52.9057 65.2213 42.6876 70.845C41.3547 71.5067 40.022 72.4991 38.2449 73.1607C33.8022 75.1455 30.6923 78.1228 27.1382 80.4385C22.6955 83.4157 19.5856 86.7238 16.0315 90.0319C12.9216 93.34 11.1445 96.9788 10.7003 100.949C10.7003 103.595 9.81176 106.241 10.7003 108.888C12.0331 113.85 15.1429 118.481 20.0298 122.12C25.8054 126.752 32.0251 131.052 40.0219 133.699C45.3531 137.007 51.5729 138.33 58.2369 139.653C67.5666 141.307 76.4519 143.623 85.7815 145.608C92.0013 146.931 98.221 147.592 104.441 148.254C114.215 149.246 123.989 150.239 134.207 150.57C143.536 150.901 152.422 151.231 161.751 151.893C176.856 152.885 192.406 152.555 207.511 151.562C209.288 151.562 211.065 151.231 212.842 151.231C235.056 151.231 256.825 149.577 278.594 147.923C291.478 147.262 303.917 146.931 316.801 145.938C327.019 145.277 337.237 144.946 347.455 143.623C360.339 141.969 373.667 140.976 386.551 139.653C393.659 138.991 400.768 138.33 407.876 137.668C409.653 137.337 411.43 137.337 413.207 137.007C430.089 134.691 447.416 132.375 464.298 129.729C466.963 129.398 470.073 129.067 472.739 128.406C476.737 127.744 480.736 126.752 485.178 126.752C487.4 126.752 490.065 126.09 492.287 125.759C502.061 123.774 512.279 121.789 522.053 119.805C541.6 115.504 561.148 111.865 579.363 105.249C587.36 103.595 594.024 100.287 601.132 97.3097C609.129 94.0016 615.793 89.0395 622.013 83.7466C624.679 81.1001 626.011 78.1228 626.456 74.8148C627.344 70.5143 625.123 66.5446 623.346 62.5749C622.901 61.9133 622.457 61.2516 621.569 60.59C613.572 54.3047 610.018 51.989 599.8 46.6961C597.578 45.7037 595.801 44.7113 593.58 43.7188C590.914 42.3956 588.249 41.4032 585.139 40.08C583.806 39.4183 582.473 38.7567 581.14 38.7567C576.253 38.0951 571.811 36.4411 567.368 34.4562C564.258 33.133 560.704 32.1406 557.15 33.133C554.484 33.7946 552.263 32.4714 550.042 31.8098C549.153 31.479 548.264 30.8173 547.376 30.8173C541.156 30.1557 534.936 28.5017 528.717 28.1709C528.272 28.1709 527.828 27.8401 527.828 27.8401C527.384 27.1784 527.828 26.8476 528.717 26.8476C530.938 26.5168 531.382 26.5168 532.271 26.186C532.271 26.186 532.715 25.8552 532.715 25.5244C532.715 25.1936 532.271 24.8628 532.271 24.8628C530.938 24.532 529.605 24.2012 528.272 24.2012C525.607 24.2012 522.497 24.532 519.831 24.8628C514.5 25.5244 510.057 24.8628 506.503 21.8855C502.061 21.2239 497.618 20.8931 493.62 20.2315C490.51 19.5699 487.844 19.9007 484.734 19.9007C482.513 19.9007 480.736 18.9083 479.403 17.9158C478.959 17.2542 478.959 16.5926 478.959 16.2618C479.403 15.931 479.847 15.2694 480.291 15.2694C484.734 14.9386 489.621 15.6002 494.064 16.2618C501.172 17.2542 507.836 18.5774 514.944 18.9083C515.833 18.9083 516.277 18.9083 517.166 19.2391C527.384 20.8931 537.158 22.8779 547.376 24.532C551.819 25.5244 556.261 26.186 560.704 27.5093C569.589 29.8249 578.03 31.8098 586.916 34.4562C593.58 36.4411 599.8 38.7567 605.575 42.0648C606.908 42.7264 608.241 43.7188 610.018 44.3805C617.126 47.3577 622.901 51.989 628.677 56.2895C630.898 57.9436 632.231 59.5976 633.12 61.5825C634.452 64.5597 635.785 67.537 638.007 70.5143C639.784 75.8072 639.339 81.1001 635.341 85.7314C630.454 91.0243 625.123 95.9865 618.459 99.6253C612.239 102.933 606.019 105.58 599.8 108.557C598.467 109.219 597.134 109.55 595.801 109.55C592.247 109.88 589.137 111.534 586.472 113.188C584.694 114.181 582.917 114.512 580.696 115.173C571.811 117.489 562.925 119.474 554.484 122.451C552.707 123.113 550.93 123.443 549.597 123.443C544.71 123.774 539.823 124.105 535.381 126.09C534.936 126.09 534.492 126.421 534.492 126.421C525.607 126.752 518.054 129.398 510.057 132.044C506.059 133.368 502.061 134.029 497.618 134.029C494.952 134.029 492.731 134.36 490.065 134.36C486.955 134.36 484.29 134.691 481.624 135.683C479.847 136.345 478.514 136.676 476.737 137.007C472.295 137.668 467.852 137.999 462.965 138.661C458.522 140.645 453.635 140.645 448.748 141.638C444.306 142.3 439.863 142.961 434.976 143.623C433.199 143.954 431.422 143.954 429.645 143.954C426.091 143.954 422.537 144.615 419.427 145.938C417.65 146.6 415.428 146.931 413.207 146.931C409.209 146.931 405.654 147.262 401.656 147.923C394.992 149.246 388.328 149.908 381.664 149.908C375 149.908 368.336 150.57 361.672 151.893C356.785 152.885 351.898 153.216 347.011 153.216C341.68 153.547 336.349 153.878 331.017 154.209C321.688 154.87 311.914 156.193 302.584 155.532C300.807 155.532 299.03 155.863 297.253 155.863C289.256 156.855 281.259 157.517 272.818 157.517C266.154 157.517 259.49 157.847 252.826 158.84C250.605 159.171 247.939 159.171 245.274 159.171C237.277 159.502 229.724 159.832 221.728 160.163C202.624 160.825 183.52 161.486 164.417 160.494C154.199 160.163 143.981 159.502 133.762 158.84C127.987 158.509 122.211 158.84 116.88 157.847C115.992 157.517 114.659 157.847 113.77 157.517C108.883 155.863 104.441 155.863 99.1096 156.524C95.1111 156.855 90.6685 156.524 86.67 154.87C86.2258 154.539 85.3373 154.209 84.893 154.209C84.4487 153.878 83.5602 153.878 82.6717 153.878C77.3404 153.878 72.4535 151.562 67.1223 151.231C62.2353 151.231 58.2369 149.908 54.2385 148.254C50.6843 146.931 47.1302 145.608 43.5761 144.946C40.022 144.284 36.9121 142.961 33.8022 141.969C33.3579 141.638 32.4694 141.638 32.0251 141.307C24.4725 136.676 16.4758 133.037 10.7003 127.082C1.37066 117.489 -2.62775 106.572 1.81494 94.994C2.25921 93.6708 3.1477 92.6783 4.03625 91.3551C4.48053 90.3627 5.36908 89.3703 7.14611 89.3703C10.7003 88.7087 13.3658 87.0546 15.5872 84.739C15.5872 84.0774 15.1429 84.0774 14.2544 84.4082C13.3658 84.739 12.4773 85.0698 11.1445 85.0698C11.1445 83.4157 12.4774 82.0925 13.8102 80.7693C19.1414 75.8072 25.3611 71.8375 31.5809 67.537C34.2465 65.8829 37.3563 64.5597 40.9105 64.2289C40.9105 65.2213 41.3547 66.5445 41.3547 67.537C38.2449 67.537 36.0236 68.5294 34.6907 70.5142C29.8038 71.8375 29.8038 71.8375 28.471 74.8147C31.1366 73.8223 32.9136 72.4991 34.2465 70.5142C36.912 70.1834 39.1334 68.8602 40.9105 67.537C48.463 63.8981 56.0156 59.9284 63.5682 56.2895C64.0124 56.2895 64.0124 55.9587 64.0124 55.6279C64.0124 54.9663 63.5682 54.6355 62.6796 54.9663C60.4583 55.6279 58.2369 56.6203 55.5713 56.2895C56.9041 55.2971 57.7927 54.3047 59.1255 53.643C61.7911 51.989 64.9009 50.6658 68.8994 51.3274C71.5649 51.6582 73.7863 50.6658 75.1191 49.0117C76.4519 47.3577 78.229 46.3653 80.4503 45.3729C87.1144 42.3956 94.2227 40.0799 101.331 38.0951C105.329 37.1027 109.328 36.441 113.77 36.1102C116.436 36.1102 119.546 35.7794 121.767 34.1254C124.877 34.1254 127.987 34.1254 130.653 32.4714L130.208 32.4714C138.649 31.1481 147.091 30.1557 154.643 27.84C157.309 26.8476 160.863 26.5168 163.973 26.186C165.306 25.1936 167.083 23.8704 167.527 22.5471Z" fill="#DFD3C3"/>
<path d="M255.492 14.6077C264.377 15.2694 273.263 14.2769 282.148 13.9461C286.591 13.6153 290.589 13.2845 295.032 12.9537C299.03 12.6229 302.584 12.2921 306.583 11.9613C310.581 11.6305 314.58 10.9689 318.134 11.6305C322.132 12.2921 325.686 12.2921 329.685 11.6305C331.017 11.2997 332.35 11.6305 334.127 11.2997C339.903 10.3072 345.234 10.6381 351.009 12.2921C350.565 12.6229 350.121 12.9537 349.677 12.9537C346.123 13.2845 342.568 13.2845 339.014 13.2845C334.572 13.2845 330.573 13.6153 326.575 14.6077C321.244 15.931 315.468 15.931 309.693 15.6002C303.917 15.2694 298.586 15.6002 292.81 16.5926C283.481 17.585 274.595 18.2466 265.71 18.2466C258.158 18.2466 250.161 18.9082 242.608 19.5699C240.387 19.9007 238.165 20.8931 235.5 21.2239C235.056 21.2239 234.167 20.8931 233.723 20.5623L233.723 19.9007C234.167 18.9082 235.056 17.9158 236.388 17.9158C239.054 17.9158 242.164 17.9158 244.829 17.9158C249.272 17.585 252.826 16.5926 255.492 14.6077Z" fill="#DFD3C3"/>
<path d="M379.443 10.6381C381.664 9.64563 384.33 9.97644 386.551 10.3072C390.994 11.2997 395.436 11.2997 400.323 11.2997C406.543 11.2997 413.207 11.2997 419.427 11.2997C422.981 11.2997 426.535 11.2997 430.089 11.9613C436.309 13.2845 443.417 13.2845 450.081 12.9537C454.968 12.6229 459.855 12.9537 464.742 13.9461C468.741 14.6078 471.85 16.2618 473.627 19.2391C473.627 19.5699 473.627 19.9007 473.627 19.9007C473.183 20.2315 472.295 20.5623 471.85 20.5623C471.406 20.5623 470.518 20.5623 469.629 20.2315C464.742 17.585 458.967 16.9234 453.635 15.6002C450.526 14.9386 447.416 14.6078 444.306 15.6002C441.64 16.5926 438.975 16.5926 436.309 15.6002C435.42 15.2694 434.088 14.9386 433.199 14.9386C427.868 15.6002 422.537 14.2769 417.205 15.2694C414.984 15.6002 412.763 15.6002 410.986 14.6077C408.32 13.2845 405.654 13.2845 402.989 13.6153C400.323 14.2769 397.658 13.9461 394.548 13.6153C390.549 12.9537 386.995 12.9537 382.997 12.6229C381.664 12.2921 379.887 11.9613 379.443 10.6381Z" fill="#DFD3C3"/>
<path d="M167.971 20.8931C170.637 18.9082 173.747 17.9158 177.301 18.2466C178.189 18.2466 178.634 18.5774 178.634 18.9082C178.634 19.239 178.189 19.239 177.745 19.5699C174.635 20.8931 171.081 21.2239 167.971 20.8931Z" fill="#DFD3C3"/>
<path d="M120.879 32.1405C123.1 30.4865 125.766 29.4941 129.32 29.1633C130.208 29.1633 131.097 29.8249 130.653 30.8173C130.208 31.1481 130.208 31.8097 129.764 32.1405L130.208 32.1405C126.654 31.8097 123.544 31.8097 120.879 32.1405Z" fill="#DFD3C3"/>
<path d="M363.449 12.6229C363.005 12.2921 362.116 12.2921 361.672 11.9613C361.672 11.9613 361.228 11.2997 361.672 11.2997C362.116 10.6381 363.449 10.6381 364.338 10.6381C364.782 10.6381 365.67 10.9689 366.115 11.2997C366.559 11.2997 366.559 11.9613 366.559 11.9613C366.559 12.2921 366.115 12.2921 365.67 12.2921C365.226 12.6229 364.338 12.6229 363.449 12.6229Z" fill="#DFD3C3"/>
<path d="M463.854 5.01433C466.075 5.01433 468.296 4.68352 470.518 5.67594C468.296 6.99918 466.075 6.33756 463.854 5.01433Z" fill="#DFD3C3"/>
<path d="M167.971 22.5471C167.083 22.2163 166.194 22.2163 164.861 21.8855C166.194 21.5547 167.083 21.2239 167.971 21.2239C167.527 21.5547 167.527 21.8855 167.971 22.5471Z" fill="#DFD3C3"/>
<path d="M48.4631 58.936C48.0188 59.2668 47.5745 59.5976 47.1302 59.9284L46.686 59.5976C47.1302 59.2668 48.0188 59.2668 48.4631 58.936Z" fill="#DFD3C3"/>
<path d="M206.622 13.9461L205.734 13.9461L206.178 13.6153L206.622 13.9461Z" fill="#DFD3C3"/>
<path d="M120.879 33.4638C120.879 32.8022 120.879 32.4714 120.879 31.8097C120.879 32.4714 120.879 33.133 120.879 33.4638Z" fill="#DFD3C3"/>
</g>
</svg>
